<?xml version="1.0" encoding="UTF-8"?>
<!DOCTYPE svg PUBLIC "-//W3C//DTD SVG 1.1//EN" "http://www.w3.org/Graphics/SVG/1.1/DTD/svg11.dtd">
<!-- Creator: CorelDRAW X7 -->
<svg xmlns="http://www.w3.org/2000/svg" xml:space="preserve" width="500px" height="161px" version="1.1" style="shape-rendering:geometricPrecision; text-rendering:geometricPrecision; image-rendering:optimizeQuality; fill-rule:evenodd; clip-rule:evenodd"
viewBox="0 0 1861 599"
 xmlns:xlink="http://www.w3.org/1999/xlink">
 <defs>
  <style type="text/css">
   <![CDATA[
    .str0 {stroke:black;stroke-width:29.1979}
    .fil0 {fill:none}
    .fil1 {fill:black;fill-rule:nonzero}
   ]]>
  </style>
 </defs>
 <g id="Ebene_x0020_1">
  <metadata id="CorelCorpID_0Corel-Layer"/>
  <rect class="fil0 str0" x="15" y="15" width="1832" height="569" rx="175" ry="175"/>
  <path class="fil1" d="M642 165l0 3 -2 1 -3 1 -4 -1 0 -1 -6 -8 -8 -8 2 -1 -1 -1 -1 1 -1 0 -2 -2 2 0 -2 0 -1 0 -11 -4 0 -1 -1 -2 -1 -3 0 -2 1 -3 1 -1 1 0 2 0 0 0 2 1 0 -1 1 1 2 -1 2 1 0 -1 2 0 1 2 0 -1 1 1 1 -2 9 0 10 0 1 0 1 1 1 3 0 3 -2 1 0 1 1 -1 -1 2 -1 3 0 2 1 1 2 0 0 3 -1 -1 -1 1 -1 -2 0 2 1 0 0 2 2 0 1 11zm-17 46l0 3 -2 2 -3 0 -2 0 -1 -1 -7 -11 -6 -6 -2 -2 0 -3 1 -5 1 -1 5 -4 0 1 2 0 0 -2 3 -1 0 -3 -1 -1 4 -7 0 0 3 -1 3 1 2 1 0 5 0 10 -1 7 1 3 -1 1 -1 2 2 0 0 2 0 10zm21 5l-1 22 -1 13 0 1 -1 1 0 -1 0 -1 0 0 -2 0 -1 -1 -1 0 -1 2 -2 -2 -3 1 -6 1 -2 -2 -1 0 -5 1 1 1 -2 0 0 0 -4 1 -6 1 -2 0 -2 -1 -1 -2 -1 -4 1 -5 1 -1 9 -4 2 -1 1 2 1 0 2 0 1 -2 2 0 0 -2 2 0 3 0 0 -1 1 0 0 -2 -2 0 0 -1 1 -1 1 0 0 -1 2 -1 -1 0 -1 0 1 -2 1 2 1 -1 -2 -1 3 -5 4 -5 2 -1 2 0 4 0 2 2 0 0zm-4 36l-1 1 -1 0 2 -1zm-45 -111l-1 23 -2 0 0 1 -3 -1 0 0 0 0 1 3 5 0 0 1 -1 0 1 2 -2 0 0 2 2 3 0 0 0 7 -2 0 -1 1 2 0 1 2 0 1 -2 -1 -1 0 0 3 -1 1 1 1 -1 1 1 1 -2 1 -1 0 -1 5 2 0 3 -2 -1 0 1 -3 1 -1 1 14 -1 33 -1 0 -1 0 0 1 0 2 1 1 2 0 0 6 -1 3 -1 1 -4 0 -5 0 0 -2 -1 -1 1 -3 0 -2 -1 0 0 0 -1 0 -1 2 0 2 0 4 -20 0 0 -1 0 -2 -1 0 -2 1 -2 1 -1 1 -7 0 -4 -2 -2 -2 -1 -2 1 -2 0 0 7 -4 2 2 1 -1 0 -1 1 0 1 -1 1 0 1 -1 0 -3 1 0 -1 -1 -1 -2 0 -1 -2 -1 0 -6 -2 -2 1 0 0 -3 0 -4 2 0 1 -1 1 0 0 -1 0 -3 -2 0 1 -1 -4 0 0 -7 1 -4 -1 -15 0 -1 1 -3 0 -3 1 -1 0 0 0 -3 1 -3 -3 -1 1 -4 0 1 2 -2 -3 0 0 -5 -1 -13 0 -1 -6 -3 -1 0 -1 -2 -1 -2 1 -2 2 -2 3 -1 4 -1 18 1 1 2 1 0 0 -1 1 -1 4 0 1 2 1 0 3 0 0 0 1 -2 3 0 1 2 2 -1 1 0 0 -1 2 0 2 0 1 1 1 7zm-40 93l-1 1 0 0 0 -2 -1 -1 0 0 1 0 0 1 1 1zm36 -83l0 -1 -2 -1 -1 1 -1 0 -1 2 1 2 1 1 3 -1 0 -1 -1 0 -1 -1 2 -1 0 0zm-2 35l-1 -2 0 2 1 0zm-37 -19l-1 0 0 1 1 0 0 -1zm2 34l-1 0 0 2 1 0 0 -2zm26 47l0 -1 -2 -1 0 1 0 0 1 1 1 0zm0 3l0 -1 -3 -1 3 2z"/>
  <path id="1" class="fil1" d="M750 135l-1 0 -1 -2 1 0 1 2zm2 33l0 1 -1 1 -3 0 -2 1 -1 0 -3 -2 1 -1 1 0 0 0 0 -1 -2 -1 -1 1 0 1 -6 -10 -4 -5 -2 -3 -5 -3 -11 -5 -1 -1 -1 -5 1 -4 1 -1 3 -1 9 2 3 2 2 1 0 -1 2 1 1 1 2 4 2 1 -1 -5 1 0 0 -1 4 -3 1 -1 2 0 1 0 1 1 1 2 0 0 0 2 1 1 2 0 0 1 1 2 -1 7 -2 2 1 0 0 4 -1 2 1 0 1 2 0 0 2 11zm-69 -32l-1 1 -1 0 2 -1zm76 80l-1 8 0 2 -1 0 -1 1 0 -1 -1 0 0 1 1 -1 -1 3 -2 2 0 1 1 0 1 -2 1 0 0 2 -3 5 -1 1 -1 -2 1 0 0 -2 1 0 0 -2 -2 0 -1 1 -1 0 0 1 -1 0 0 2 -1 -1 -1 0 -4 3 -2 1 0 2 1 1 -1 0 0 1 -1 0 1 3 -2 0 0 1 -1 0 -1 1 -1 -1 -1 1 0 0 -4 1 0 2 4 0 -2 1 -10 2 -2 0 0 -1 -4 0 1 1 -2 0 0 -1 0 -3 -3 -1 0 -1 0 -4 1 -1 0 0 8 -4 1 -1 3 -4 0 -5 -1 -4 -3 -5 -5 -4 -10 -3 1 -1 -3 0 -2 -1 0 -1 1 0 1 -1 1 1 1 -1 0 -1 1 0 0 -2 1 0 -1 -1 -1 0 0 2 -3 1 0 -1 -1 -2 -1 1 -1 -1 -2 1 -7 -1 0 -2 2 0 0 -1 1 0 0 -2 -1 -1 3 -1 -1 -3 -2 0 -1 1 -3 1 0 2 0 2 -1 0 1 3 -2 0 0 -1 -3 0 1 -1 1 0 0 -1 -5 -1 -2 1 -1 -1 -2 -1 0 -1 2 0 0 -1 2 0 0 -3 2 2 0 1 4 -1 1 1 1 0 -3 -5 -6 2 0 0 -3 1 0 2 -3 -1 -4 -3 -1 -4 -2 -1 -3 -7 0 -2 -1 -7 0 -8 2 0 0 -2 -1 0 0 0 0 -1 1 -1 0 -1 0 0 1 -2 1 -1 2 -2 -1 0 2 -4 1 0 4 -4 1 -2 1 -1 -1 -1 0 -1 3 0 0 -2 2 1 -1 0 0 3 1 -1 1 -3 2 0 1 -2 1 0 1 -1 -1 0 0 0 3 0 3 -1 0 -1 3 0 0 -2 2 0 0 -1 4 -1 4 1 1 2 1 3 -1 3 0 2 -10 6 -1 2 -1 5 1 6 4 5 7 4 25 8 7 3 5 2 1 2 1 0 0 2 1 1 1 1 -1 0 0 3 2 0 1 1 1 1 0 2 -1 2 2 1 2 1 1 1 0 -2 -2 0 -1 -2 2 1 2 -1 1 0 0 1 0 0 1 2 0 0 1 2 1 2 1 13zm-9 21l-1 -1 0 2 -1 0 0 -1 0 -1 1 0 1 1zm-7 3l-1 1 -1 -1 1 -1 1 1zm1 2l-1 0 0 1 -1 -2 2 1zm-38 7l0 0 -2 2 0 2 -1 0 0 1 -3 0 -2 0 -2 -1 1 -1 -1 -1 -2 2 -1 -2 -3 0 -1 0 0 -1 -4 0 0 -2 -7 3 -5 3 -4 0 -2 -1 -2 -1 -1 -2 1 0 0 -3 0 -1 0 -1 0 -1 0 -1 1 -1 -1 -3 2 0 -1 -2 -2 -1 0 -2 0 -4 -1 -10 -1 -7 0 -2 1 0 4 -1 3 0 1 1 3 5 1 4 0 2 -1 2 -1 0 0 2 1 0 1 2 2 0 0 -4 2 2 5 6 5 4 4 3 11 4 2 4 0 2zm19 -112l0 -1 -1 0 -1 1 2 0zm-31 -1l-2 -1 0 1 2 0zm-5 0l-1 0 -1 1 1 0 1 -1zm4 7l-1 -3 -1 2 2 1zm57 59l-1 -2 0 2 1 0zm-2 -3l-1 -1 -2 0 -1 -2 -1 1 0 1 -1 0 -1 1 1 1 1 2 1 -1 0 -1 0 0 1 0 1 -1 1 0 1 0zm0 5l0 -1 -1 0 0 2 1 -1zm-7 -3l-1 -1 -1 1 2 1 0 -1zm3 4l-1 -1 1 2 0 -1zm7 5l-3 -3 -1 2 -2 0 0 1 3 2 -1 3 0 3 0 0 -1 -1 0 3 1 1 1 -3 2 -1 0 -1 0 -1 -2 -3 2 0 1 -2zm-41 -2l-2 0 -1 1 2 0 1 -1zm-19 -15l0 -1 -2 1 0 0 2 0zm-3 0l-1 -1 -1 0 0 1 0 1 2 -1zm0 8l-1 0 -1 1 2 0 0 -1zm-9 -8l-1 -2 -1 -1 -1 1 -2 -1 -1 1 2 0 1 2 0 -1 2 1 1 0zm-9 -5l-1 0 -1 1 1 0 1 -1zm5 7l-1 0 0 1 1 -1zm27 56l-2 0 -2 0 0 1 0 1 1 0 1 -1 1 1 1 -2z"/>
  <path id="2" class="fil1" d="M872 172l0 2 -1 1 0 1 -4 0 -4 0 -1 -2 -2 -3 0 -3 -1 0 0 -1 1 0 0 -1 -2 -1 -1 -1 -5 -9 -5 -5 -4 -4 -10 -5 -1 -5 0 -3 1 -1 1 -1 3 -1 9 2 2 1 -1 2 0 3 -1 0 1 2 1 0 2 -3 1 -1 1 0 0 -2 3 1 -1 1 -1 2 -1 -1 -1 0 0 2 -1 0 1 2 1 1 1 0 2 -2 1 -1 -2 0 0 -1 2 -3 0 0 2 -1 5 -4 0 0 4 1 2 1 2 1 0 1 0 15 1 13 -1 2 0 2 1 0 0 5 -1 1 1 0zm-11 54l-1 0 0 -2 0 0 1 2zm13 -3l-1 4 -4 9 -1 2 -3 -1 0 4 -2 0 -5 4 -2 2 -3 4 -7 3 -7 0 -4 0 -1 -1 -1 -4 0 -4 1 -2 12 -5 5 -3 3 -3 4 -5 1 1 1 1 1 -2 1 -3 1 0 -1 -1 -1 0 0 -1 0 0 0 -1 1 0 0 -2 2 0 0 -1 -1 0 2 -1 1 0 4 1 3 3 1 2zm-47 26l-1 4 -1 1 -5 1 -10 -2 -6 -2 -8 -4 -6 -5 -2 -2 1 -1 -1 -1 -2 0 -2 -2 0 -5 -2 -1 1 -1 -1 0 1 -4 -2 -1 -2 0 1 1 0 1 -2 1 0 -8 -1 0 0 -1 0 -2 0 -2 -2 -1 0 -2 -2 0 -1 -2 -1 -3 0 -13 0 -11 1 -6 3 -10 7 -14 1 -2 2 2 -1 -1 1 -1 -1 -1 1 -1 8 -8 9 -6 2 0 0 0 0 0 0 1 -2 2 -1 1 3 2 3 1 0 -1 -1 -1 -1 0 1 -1 0 -1 2 -2 2 0 1 -1 2 -3 1 0 4 -1 4 0 3 1 1 1 0 7 -6 8 -1 1 0 5 0 2 -2 -1 0 1 0 1 -2 0 -1 1 1 1 -1 1 -3 -2 -1 0 0 2 0 1 -2 1 -2 1 2 1 0 2 -2 1 0 0 0 1 0 1 0 1 2 0 -1 -2 -1 0 2 0 2 -1 -1 -1 4 0 4 -6 1 -1 0 5 -1 8 0 1 1 1 -1 0 -1 4 -1 1 -1 -2 1 0 0 -2 1 -1 -1 -1 -2 0 0 1 0 3 -2 1 0 1 1 1 1 2 1 0 -1 3 1 0 -1 1 1 4 1 0 1 0 0 1 0 2 2 2 0 4 -1 0 1 3 -2 2 2 1 -1 2 1 6 -1 0 0 2 1 0 1 19 2 6 2 2 -2 1 1 1 3 -1 1 2 1 4 0 1zm34 -85l0 -3 -3 0 0 2 3 1zm-59 -23l-1 -1 -1 0 0 1 1 1 1 -1zm10 11l-1 -1 -1 1 1 1 1 -1zm2 3l-2 -1 0 1 1 1 1 -1zm-4 -1l-1 -1 -1 0 2 2 0 -1zm-11 -11l0 -1 -3 1 0 1 2 1 1 -2zm10 15l0 -2 -1 0 0 1 1 1zm55 64l-2 -1 0 1 1 1 1 -1zm-57 -51l0 -1 -3 2 0 1 0 1 1 1 1 -1 0 -1 0 0 1 -2zm3 11l-1 -1 0 -2 -1 0 -1 1 2 3 0 0 1 -1zm-4 -6l-1 0 -1 0 -1 0 -1 0 3 1 1 -1zm-23 -20l-1 -1 -1 0 0 0 -2 4 0 2 1 1 1 -3 1 -1 0 -2 1 0zm26 31l0 -1 -1 -1 0 0 -1 0 0 1 0 1 0 1 2 -1zm-26 22l0 -2 -3 -2 1 2 -1 1 3 1zm-8 -4l0 -1 0 0 -1 1 1 0zm9 18l-2 -1 -1 0 0 0 0 1 1 1 1 0 1 -1z"/>
  <polygon id="3" class="fil1" points="954,130 953,131 953,134 950,139 949,141 949,143 949,143 949,145 948,146 948,147 948,147 947,150 947,150 948,151 946,153 946,155 944,158 942,164 941,166 940,166 939,167 939,167 940,168 939,170 938,172 936,175 934,181 926,198 926,199 906,240 906,240 906,240 906,242 905,242 905,241 904,242 902,246 902,249 901,251 900,252 899,253 899,253 898,254 899,255 899,257 898,257 898,259 897,259 897,258 896,258 893,259 893,260 885,260 882,259 883,257 886,249 887,249 888,247 888,245 889,245 889,244 890,243 890,243 891,243 891,242 890,242 891,240 890,239 891,239 894,232 895,232 896,230 896,229 895,229 897,226 898,223 898,222 899,222 899,222 899,222 899,221 900,221 900,220 903,218 903,217 904,216 904,214 905,212 905,212 903,212 905,209 908,204 908,204 909,202 910,202 910,200 909,199 929,155 931,156 931,154 930,153 932,150 933,149 933,148 934,147 934,146 935,145 935,145 936,143 937,143 939,143 939,142 938,142 937,141 938,141 939,139 939,138 940,137 940,135 942,134 942,133 942,133 943,133 942,131 944,131 943,128 942,127 944,126 945,126 953,126 952,127 952,129 "/>
  <path id="4" class="fil1" d="M1077 168l-2 6 1 1 -1 1 0 3 1 0 0 4 -1 1 0 0 0 1 0 2 -2 1 1 1 -1 2 -3 1 -1 -3 -1 0 -3 2 0 1 -5 2 1 0 2 0 1 1 1 -1 1 2 -2 1 -1 0 0 1 -1 1 1 1 -2 -1 -1 0 0 2 -1 0 0 0 2 1 1 0 0 1 -1 0 -4 2 -1 -2 -1 2 -3 0 -2 1 1 1 -3 0 -11 1 -5 0 -7 -2 -1 -1 -1 -3 1 -5 7 -5 1 0 1 -6 1 -2 1 0 0 -4 2 -1 -1 -1 -2 0 1 -3 1 2 2 0 0 -3 1 0 -2 -2 0 -1 1 0 0 -2 0 0 1 -1 1 0 -1 -7 -1 0 0 -1 -2 -1 1 -1 0 0 1 -1 0 0 2 0 2 0 0 -2 0 -3 -1 -1 -1 -2 0 -1 -2 0 -1 2 -2 -1 -3 1 -2 -4 -5 -3 -1 -1 -1 -3 2 -5 1 -1 9 -1 8 0 12 2 5 1 2 1 0 1 0 1 0 3 1 0 -1 1 0 1 1 0 3 0 0 0 1 0 0 -2 -2 -1 0 -3 1 1 6 6 4 9 0 4 1 2 -2 0 -1 2 1 1 0 2 2 1 0 1 -1 0 1 2zm-100 -13l-2 1 0 -1 2 0zm50 93l-1 2 -2 2 -7 2 -19 -1 -1 -2 -2 0 -1 2 2 -1 0 1 -2 0 0 -2 -1 1 0 -1 -1 1 -2 -1 1 2 -14 0 -6 0 -5 -1 -1 -2 -1 -2 1 -3 0 0 9 -3 0 -1 -2 0 1 0 4 -1 0 -1 -1 0 0 -2 -1 0 0 -1 0 -1 0 -1 -1 0 1 -13 -1 0 0 -8 0 -6 0 -2 1 -2 2 0 0 -3 -1 -1 -2 -1 2 0 0 -2 -2 0 0 -1 1 0 1 1 0 -1 1 -2 -1 -1 0 -4 -1 2 -1 0 0 -4 2 0 0 -2 0 -1 -1 -5 -1 0 0 -1 1 0 0 -1 -1 -1 1 -3 3 0 0 -3 -1 -1 0 -1 -1 -1 -1 2 -1 0 0 -3 2 0 0 1 1 0 2 -1 0 -1 0 -2 -2 -1 -1 -2 -2 2 0 -3 2 0 3 0 -1 -5 0 -2 0 0 0 -2 -1 0 0 -1 -3 -1 -1 -1 -1 -1 -7 -4 0 -3 0 -3 2 -1 7 -2 2 0 0 2 3 0 3 -1 -3 -1 3 0 1 3 2 -1 3 -1 1 1 2 0 2 0 0 1 1 -1 3 0 0 1 1 -1 2 1 1 -1 1 1 1 -1 2 1 1 -1 2 -1 0 1 2 -1 0 -1 3 0 0 3 2 4 0 2 0 1 1 0 0 -1 1 0 0 0 0 20 -1 1 1 2 0 2 -1 0 0 3 1 1 0 48 -2 4 -1 3 1 1 0 0 1 0 0 0 1 -2 0 0 0 2 0 1 -1 1 0 3 0 2 -1 0 -1 0 0 0 1 2 -1 3 0 2 -2 0 1 -1 -1 -1 1 -1 0 -1 1 0 0 -2 -2 1 0 2 -1 0 -1 0 0 1 0 2 2 1 -2 1 0 1 1 0 2 -2 1 1 1 -1 -1 1 3 1 2 -2 1 1 5 2 1 1 1 1 0 2zm-52 -64l-1 1 0 -2 1 1zm88 -38l-1 -1 0 0 1 1zm5 6l-1 -2 -1 1 1 1 1 0zm-1 8l0 -3 -1 0 -1 1 0 1 1 0 1 1zm-25 22l-2 0 -1 0 0 1 1 0 2 -1zm-1 4l0 -1 -1 0 -1 0 2 1zm-7 3l-1 1 0 1 1 0 0 -2zm-32 -25l-1 -1 0 -2 -1 0 0 0 -2 0 -1 3 2 1 3 0 0 -1zm-5 4l-1 0 -2 3 2 0 1 -1 0 -2zm-5 3l-1 -3 -2 2 1 1 -1 2 2 0 1 -2zm-1 4l0 -1 -1 0 0 1 1 0zm-3 2l-1 0 -1 1 -1 0 -1 1 4 0 0 -2zm7 73l-2 -2 -1 0 0 1 -4 0 -1 0 -1 0 0 1 1 1 0 1 1 0 1 1 1 0 0 -1 -1 -1 3 -1 3 0z"/>
  <path id="5" class="fil1" d="M1161 167l-1 1 0 2 -1 0 0 -1 0 -1 -1 -1 1 -3 1 0 1 3zm43 32l-1 6 -1 7 -4 10 -1 3 -1 2 -1 0 0 -2 -2 -2 -1 1 0 1 -2 2 0 2 -2 3 0 1 -2 0 0 3 1 0 -1 2 -2 0 0 -1 -3 -1 -2 1 -1 2 0 0 0 1 -2 2 1 1 0 2 0 1 -1 1 -4 3 -8 3 -6 2 -5 0 -3 -1 -2 -2 0 -3 0 -5 5 -5 2 -7 2 -1 -1 -1 1 0 0 -3 1 0 0 -3 1 -4 -1 0 1 -2 0 -3 0 -1 1 -2 1 -2 -1 0 1 -1 0 -1 1 -3 -1 -2 1 -1 -1 -3 2 -2 -1 -1 -1 0 -1 -1 1 -1 -3 0 -1 -1 0 2 0 -3 1 0 0 -2 0 0 0 -6 0 -2 -2 -2 1 0 1 0 0 -1 0 -1 -1 1 -1 -10 1 0 0 1 0 1 0 3 0 0 0 1 1 1 1 -2 -1 -2 2 -1 2 1 1 -1 0 -1 0 0 0 -1 0 -1 0 -2 0 -1 0 -1 0 -3 1 -2 -1 -1 -2 -1 -2 0 0 1 1 2 -1 0 -1 3 -2 -2 0 0 0 -8 -2 -4 -1 -3 -5 -5 0 -1 0 -2 0 -2 0 -4 1 -1 2 0 1 0 1 2 1 -1 1 0 1 2 1 0 0 0 1 -2 1 0 1 -1 1 1 2 0 -1 1 2 1 1 1 1 -1 1 -1 10 5 -1 0 1 1 2 0 0 0 -1 2 1 0 -1 1 2 1 0 1 0 0 0 1 3 1 1 1 1 -1 0 1 3 2 0 1 1 1 2 2 1 1 0 3 1 1 1 1 0 1 0 0 1 1 1 4 2 1 0 1 -1 0 1 1 0 -1 2 2 0 4 0 2 1 0 0 5 2 0 0 4 0 3 0 4 0 0 0 5 1 3zm-20 40l-2 1 -1 -1 2 0 1 0zm-4 0l-1 0 0 0 1 0zm-38 11l-1 3 -1 1 -3 1 -2 -1 0 1 -3 -1 -1 -1 -2 1 -1 -2 -2 1 -1 0 0 -1 1 -1 1 -2 3 3 0 -1 -2 -1 0 -1 0 -1 0 0 1 0 0 -3 -2 1 -1 1 1 2 -1 0 -1 0 1 1 -1 2 -1 -1 0 2 -3 -1 -7 -3 -6 -5 -3 -2 2 0 -1 -1 -1 0 0 -1 0 -1 -3 -1 1 -3 -3 -2 0 -1 0 0 -1 -1 -1 -1 0 2 -1 0 0 -2 0 -1 1 0 1 -1 -1 0 0 -1 0 -3 1 0 0 -1 -1 -1 0 -1 -1 -2 -3 0 0 -1 -1 -2 1 0 -1 -1 -1 -1 -2 1 -2 0 0 -2 -3 -14 0 -5 1 -15 2 -6 2 -3 0 1 2 1 0 -2 0 -2 1 -1 -1 0 -1 -1 2 0 0 -1 2 -1 1 1 -1 1 3 1 0 -1 0 -1 1 0 1 -1 -1 0 0 -2 -2 0 -1 2 -1 0 0 -3 0 -1 1 0 0 -3 2 0 1 -2 1 0 3 0 -2 -2 0 -1 0 -3 2 1 0 -3 0 0 0 -1 2 0 1 -2 0 -1 0 0 1 0 1 -1 -1 -1 2 -1 4 -3 10 -4 12 -3 3 0 2 1 1 1 1 7 -1 1 -6 7 0 2 -2 33 -3 0 0 1 0 2 0 1 1 1 -1 2 0 2 0 2 1 2 -1 2 1 1 0 1 0 1 -1 0 -1 1 1 1 -1 2 0 2 1 0 0 1 1 1 0 1 0 1 0 2 1 1 -1 2 2 0 1 13 -1 1 -2 5 2 2 1 -2 1 2 0 3 6 5 1 6zm-46 -82l-2 1 1 0 0 1 1 0 0 1 0 -3zm-6 9l0 0 -1 -1 -2 2 2 0 1 0 0 -1zm-1 10l0 -6 -2 -1 -1 3 2 0 1 0 -1 2 -1 0 0 3 1 -1 1 0zm1 3l-2 -1 -1 0 2 1 1 0zm42 59l-1 -1 0 1 -1 1 1 0 0 -1 1 0zm-25 -18l0 -1 -1 -1 -2 1 0 1 1 0 1 2 0 0 0 2 1 -2 0 -1 -1 0 1 -1zm3 7l-1 -1 1 0 -2 -2 -1 0 -1 1 -1 0 1 0 -1 1 0 2 1 0 3 -1 0 1 1 -1zm-3 -2l0 2 -1 0 0 -1 1 0 0 -1 0 0z"/>
  <path id="6" class="fil1" d="M1304 135l0 0 -1 -2 1 0 0 2zm2 33l0 1 -1 1 -2 0 -3 1 0 0 -3 -2 1 -1 1 0 -1 0 0 -1 -1 -1 -1 1 0 1 -6 -10 -4 -5 -3 -3 -4 -3 -12 -5 0 -1 -1 -5 1 -4 1 -1 2 -1 10 2 3 2 2 1 0 -1 2 1 1 1 2 4 2 1 -1 -5 1 0 -1 -1 5 -3 1 -1 1 0 2 0 1 1 1 2 0 0 0 2 1 1 1 0 1 1 1 2 -1 7 -2 2 1 0 0 4 -1 2 1 0 0 2 1 0 1 11zm-68 -32l-1 1 -2 0 3 -1zm76 80l-1 8 0 2 -1 0 -1 1 -1 -1 -1 0 0 1 1 -1 0 3 -2 2 0 1 1 0 1 -2 1 0 -1 2 -2 5 -2 1 0 -2 0 0 0 -2 2 0 0 -2 -3 0 0 1 -1 0 0 1 -1 0 0 2 -1 -1 -2 0 -3 3 -3 1 0 2 2 1 -2 0 0 1 0 0 1 3 -2 0 0 1 -1 0 -1 1 -1 -1 -1 1 0 0 -4 1 0 2 4 0 -2 1 -11 2 -2 0 1 -1 -4 0 0 1 -2 0 1 -1 0 -3 -3 -1 0 -1 0 -4 0 -1 1 0 8 -4 1 -1 2 -4 1 -5 -1 -4 -3 -5 -6 -4 -9 -3 1 -1 -4 0 -1 -1 0 -1 1 0 1 -1 1 1 1 -1 -1 -1 1 0 1 -2 0 0 0 -1 -1 0 0 2 -3 1 0 -1 -1 -2 -2 1 -1 -1 -1 1 -7 -1 0 -2 1 0 0 -1 1 0 0 -2 -1 -1 4 -1 -2 -3 -1 0 -1 1 -3 1 0 2 0 2 -1 0 1 3 -2 0 0 -1 -3 0 1 -1 0 0 0 -1 -5 -1 -1 1 -1 -1 -3 -1 1 -1 2 0 0 -1 2 0 0 -3 2 2 0 1 4 -1 1 1 1 0 -3 -5 -6 2 -1 0 -2 1 0 2 -3 -1 -4 -3 -2 -4 -1 -1 -3 -7 -1 -2 -1 -7 1 -8 2 0 0 -2 -1 0 0 0 0 -1 1 -1 0 -1 -1 0 1 -2 2 -1 1 -2 -1 0 3 -4 1 0 4 -4 1 -2 1 -1 -1 -1 0 -1 2 0 0 -2 3 1 -1 0 -1 3 2 -1 0 -3 3 0 1 -2 1 0 1 -1 -1 0 0 0 3 0 3 -1 0 -1 3 0 0 -2 2 0 0 -1 4 -1 3 1 2 2 1 3 -1 3 0 2 -10 6 -1 2 -1 5 1 6 4 5 6 4 26 8 7 3 4 2 1 2 2 0 0 2 1 1 0 1 0 0 -1 3 3 0 1 1 0 1 1 2 -1 2 2 1 1 1 2 1 0 -2 -2 0 -1 -2 2 1 2 -1 1 0 0 1 0 0 1 2 -1 0 2 2 1 2 1 13zm-9 21l-1 -1 0 2 -1 0 -1 -1 1 -1 1 0 1 1zm-7 3l-1 1 -1 -1 0 -1 2 1zm0 2l0 0 -1 1 0 -2 1 1zm-37 7l0 0 -2 2 0 2 -1 0 0 1 -4 0 -1 0 -2 -1 1 -1 -2 -1 -2 2 0 -2 -3 0 -1 0 -1 -1 -3 0 -1 -2 -7 3 -5 3 -3 0 -3 -1 -1 -1 -1 -2 0 0 0 -3 1 -1 -1 -1 1 -1 0 -1 1 -1 -1 -3 1 0 0 -2 -2 -1 0 -2 0 -4 -1 -10 -1 -7 0 -2 1 0 3 -1 4 0 1 1 3 5 1 4 0 2 -1 2 -1 0 0 2 1 0 1 2 1 0 1 -4 2 2 4 6 6 4 4 3 11 4 2 4 0 2zm19 -112l0 -1 -1 0 -1 1 2 0zm-32 -1l-1 -1 0 1 1 0zm-5 0l-1 0 0 1 1 0 0 -1zm4 7l0 -3 -2 2 2 1zm57 59l0 -2 0 2 0 0zm-1 -3l-1 -1 -2 0 -2 -2 0 1 -1 1 -1 0 0 1 1 1 1 2 1 -1 0 -1 0 0 1 0 1 -1 1 0 1 0zm0 5l0 -1 -1 0 0 2 1 -1zm-7 -3l-1 -1 -1 1 1 1 1 -1zm3 4l-1 -1 0 2 1 -1zm6 5l-2 -3 -1 2 -2 0 0 1 2 2 0 3 0 3 0 0 -1 -1 0 3 1 1 0 -3 2 -1 1 -1 -1 -1 -1 -3 2 0 0 -2zm-40 -2l-2 0 -1 1 2 0 1 -1zm-19 -15l0 -1 -3 1 1 0 2 0zm-3 0l-1 -1 -2 0 1 1 0 1 2 -1zm-1 8l-1 0 0 1 1 0 0 -1zm-8 -8l-1 -2 -2 -1 0 1 -3 -1 0 1 1 0 1 2 1 -1 2 1 1 0zm-10 -5l-1 0 0 1 1 0 0 -1zm6 7l-1 0 -1 1 2 -1zm27 56l-2 0 -2 0 0 1 0 1 1 0 1 -1 1 1 1 -2z"/>
  <path id="7" class="fil1" d="M265 466l-1 2 -2 2 -6 2 -16 -1 -19 1 -2 -1 1 0 -2 -1 1 -1 1 1 1 0 1 0 1 -1 1 0 1 -1 -2 0 -1 -1 0 1 -5 0 0 1 -1 -1 0 0 -4 1 -2 -1 0 1 -5 1 -1 0 -1 -2 -1 -3 0 -2 7 -3 1 -1 1 -1 1 -7 0 -11 1 0 0 0 1 -1 -2 -4 1 -1 -1 -1 0 -1 0 -1 0 -3 0 -2 0 0 0 -2 2 -8 -2 -3 1 -8 0 -2 5 -1 0 0 0 -2 -1 -2 2 0 1 -2 -1 0 -1 1 -1 0 0 0 0 -1 -2 1 -2 2 -1 0 0 -3 0 -8 -1 -23 -1 -2 -7 -3 -1 -2 0 -2 0 -2 2 -1 5 -2 2 0 0 1 4 1 1 -1 2 0 -2 1 1 2 -2 2 1 1 2 -1 2 2 0 0 1 -3 3 0 0 -2 3 0 1 -1 2 0 1 -1 3 0 3 0 12 -1 0 1 2 1 1 -1 1 0 2 -1 2 0 6 2 1 1 1 2 0 1 -1 2 0 1 -7 3 -2 1 0 0 0 4 0 18 -1 6 0 3 -1 0 0 0 1 1 0 2 1 0 0 3 -1 -1 0 -2 -1 0 0 1 1 1 0 1 -1 1 1 5 -1 0 0 2 -1 0 0 2 0 2 -1 1 1 1 1 1 1 2 -2 -1 0 1 -2 0 2 2 0 2 1 0 1 2 -1 -1 -1 0 -1 -2 -1 0 -1 0 1 2 0 1 -1 1 0 1 1 1 -1 2 -1 0 2 3 2 -1 1 -2 -2 -1 1 -1 1 1 1 -1 1 0 0 1 -2 4 0 -1 -1 1 0 2 -1 0 0 1 1 0 -1 2 -2 1 1 2 2 2 0 1 1 3 0 -1 0 1 1 -1 1 1 -1 1 0 0 -2 -1 0 2 1 1 1 -1 1 1 0 6 0 2 1 2 1 1 7 3 1 1 0 2zm-10 -82l0 -2 -1 0 0 2 1 0zm-39 -30l-2 -1 -1 1 2 1 1 -1zm33 35l0 0 -1 -1 -1 0 -1 -2 -2 1 1 5 2 -1 1 0 1 -1 0 -1zm2 11l-1 -2 0 1 -1 0 -1 1 2 0 1 0zm-4 -1l-2 -1 0 1 1 1 1 -1zm-29 -9l-2 0 -1 1 -1 1 0 1 0 2 1 0 0 -1 1 0 0 -1 1 1 0 -2 1 -2zm9 78l-1 -1 -1 1 1 1 1 -1z"/>
  <path id="8" class="fil1" d="M414 466l-1 2 -2 2 -5 1 -6 1 0 0 -2 -1 1 0 -1 -2 -1 -1 0 2 -3 0 0 1 -1 0 -1 0 -2 1 -4 -1 -10 0 0 -1 -2 -1 0 -1 -2 0 -1 2 0 -2 -5 1 0 2 -1 0 0 1 -5 0 -7 -2 -2 -2 -1 -2 1 -2 1 -2 6 -2 0 -1 1 -1 1 -4 0 -5 0 -1 2 0 -1 -2 0 -1 -1 1 0 -3 1 -2 0 -1 2 -1 0 -6 1 0 1 -1 -2 -1 0 0 -1 1 -1 -2 -1 -1 2 0 0 -4 2 -1 0 1 1 -1 -2 -3 -1 0 1 -1 0 -2 -1 1 -1 -3 1 -1 2 0 0 -5 -1 1 0 2 -1 1 0 0 -1 -2 0 -2 -1 0 0 -33 0 -1 0 -3 -1 0 0 -7 1 -2 -1 -5 1 -3 0 -1 0 -1 0 -2 3 -1 -1 0 -1 0 1 4 1 -1 2 -2 0 1 6 -3 2 2 1 0 2 -1 1 0 2 1 0 -1 2 1 1 -1 1 1 4 0 1 0 1 -1 2 0 -1 2 2 1 0 -3 2 2 1 -2 2 0 0 -1 5 0 6 1 3 1 1 1 1 4 0 1 -1 1 -7 4 -1 0 0 1 -1 5 0 8 -2 0 0 1 1 1 -1 2 -1 3 1 1 0 2 -1 3 0 3 -1 1 -1 1 0 2 -2 2 1 1 1 0 0 1 2 -1 0 -1 -1 0 0 -2 1 0 1 2 1 1 1 -1 0 1 0 4 0 -1 -1 2 1 0 -2 3 2 2 -1 3 1 4 0 3 -2 4 1 0 1 0 -1 2 1 0 -1 2 1 0 1 28 -3 -2 -2 2 2 2 0 3 0 2 1 0 1 -3 2 0 0 1 1 -1 4 1 3 2 0 1 1 2zm-81 -96l-1 0 -1 1 0 -1 0 -1 2 1zm7 21l0 -1 -2 0 0 -1 2 0 0 2zm14 6l-1 4 -1 7 -4 11 -1 3 -1 2 0 0 0 2 -1 2 -1 3 0 2 -3 4 0 2 1 1 -2 0 0 2 0 2 -1 0 -4 4 0 1 -2 1 0 1 -3 3 -1 2 0 0 0 1 -1 -1 -1 0 0 1 -2 0 0 1 1 0 2 0 -1 3 0 2 1 0 0 1 2 0 0 1 0 0 1 -2 1 0 1 -2 1 -1 0 -1 1 0 -1 4 -1 0 -1 1 -1 2 -2 2 -1 -2 -1 0 -2 2 -2 -5 1 -1 -1 -1 2 -2 -1 -1 2 -1 0 -1 -3 1 -1 -1 1 -1 0 -1 -2 -2 0 -4 -1 -1 0 -1 -1 -4 1 -3 -1 0 1 -2 -1 -1 0 0 -2 0 -1 0 0 1 1 1 -1 0 1 2 -4 -2 2 0 0 -4 -3 0 -1 0 -11 -30 0 -4 -3 -2 1 -1 -2 -2 2 0 0 -2 -2 -2 0 -1 -1 0 1 -1 -1 -2 -1 0 1 -1 -1 0 0 -1 -1 -1 1 -1 -1 -1 0 -1 -2 -5 1 0 -1 -2 -2 -1 1 0 0 -2 1 -2 -1 -2 -4 -1 0 1 1 0 1 1 -3 0 -4 -4 -8 -4 -1 -1 -1 -2 0 -2 0 -2 1 -1 5 -1 2 -1 0 1 -1 0 -1 1 -1 -1 0 4 2 -1 3 -1 2 0 0 0 2 0 0 -1 0 -1 6 2 2 0 1 0 2 -1 0 1 2 0 0 -1 4 0 0 0 2 -1 2 -1 0 0 1 1 5 2 1 0 1 -2 -2 0 3 -1 3 1 0 0 1 0 0 -1 2 1 3 1 2 1 3 6 1 6 -1 0 0 1 -2 -1 0 3 3 0 0 1 -1 0 1 1 -1 1 1 0 0 1 1 2 0 -2 1 0 0 1 1 0 -1 1 1 0 0 1 -1 0 0 1 1 0 2 0 0 0 0 0 -1 2 1 0 -1 2 1 0 1 0 0 -2 1 4 -1 -1 -1 1 -1 -1 0 1 1 0 1 6 1 1 -1 0 1 1 -2 1 2 2 2 0 0 -1 0 1 2 0 2 3 1 -1 1 -2 5 -15 1 0 0 -2 3 -1 0 22zm-42 70l0 2 -2 1 -4 2 -4 0 -12 0 -12 0 -6 -2 -1 -2 -1 -2 1 -3 11 -4 1 -1 0 -2 2 -11 0 -6 2 -1 0 -3 -2 -1 1 0 1 -4 -1 -4 0 -1 1 0 -1 -5 1 0 0 -3 0 -3 -2 -2 0 -8 2 0 1 -1 -3 -2 0 -4 1 -1 0 -1 0 -3 -1 0 1 -3 1 0 0 0 1 2 4 9 -1 1 0 2 1 0 0 0 0 1 0 1 1 1 1 0 1 3 -1 0 0 0 2 2 0 0 1 7 -1 1 1 3 1 33 -3 2 1 4 -1 0 3 1 1 -1 1 1 3 -2 0 1 4 0 3 1 2 2 0 3zm89 -107l-2 0 0 0 -1 1 3 -1zm-8 -5l-1 -1 0 1 0 1 1 -1zm-1 1l-1 -1 -1 -2 -2 1 -1 1 -1 1 2 3 0 -1 1 0 0 -1 1 0 1 -1 1 0zm5 6l-1 0 0 -1 0 -1 -4 0 -4 1 -1 0 0 1 3 2 2 0 2 1 2 -1 0 -1 -1 0 1 0 1 -1zm-11 -2l0 -3 -1 0 0 1 1 2zm-1 2l0 -1 0 -3 -1 -1 -1 1 1 1 -7 0 0 2 -2 0 -2 1 -1 1 2 1 0 1 1 0 0 -1 1 0 1 0 1 0 1 0 1 0 1 -1 1 0 3 0 0 -1zm16 24l0 -1 -1 0 0 1 1 0zm-38 -18l-2 -1 1 2 -1 1 2 0 0 -2zm-30 10l0 -1 -1 0 1 1 0 0zm32 31l-2 0 0 0 2 1 0 -1zm37 43l0 -1 -1 0 0 1 1 1 0 -1zm-61 -57l-1 0 -1 0 0 1 1 0 -1 3 2 -4zm61 72l-2 0 -2 1 2 2 0 -1 1 0 1 -2zm-99 -83l-1 -2 1 0 -1 -2 -3 0 1 1 0 1 1 0 0 3 0 -1 2 0zm1 6l0 -1 0 0 -2 -1 -1 0 1 -1 0 -2 -1 0 0 1 -1 4 0 0 4 2 0 -2zm-1 5l0 -1 0 0 0 -1 -1 2 0 0 1 0zm1 2l-1 0 0 -1 -1 0 -1 1 0 2 1 0 1 1 1 -1 0 -2zm0 6l0 -2 0 0 -1 0 -1 0 0 0 0 1 2 1zm14 28l-2 -1 1 1 1 0zm1 4l-1 -3 0 0 -1 0 -1 1 0 1 1 0 2 1zm-23 -21l-1 -1 -1 0 -1 1 3 0zm-1 47l-2 0 -1 0 0 0 0 1 3 -1z"/>
  <path id="9" class="fil1" d="M538 467l0 2 -2 2 -7 1 -2 1 -1 -2 -2 0 0 1 -2 1 -3 -1 -2 -2 -2 1 -2 1 -1 -1 -1 1 -1 -1 -1 1 0 -1 -2 0 -4 1 -2 -1 -4 -1 -5 0 -1 2 -1 -1 -2 0 -1 1 -4 1 -4 -1 -3 -1 -1 0 -2 -1 0 -3 0 -1 0 -2 8 -4 1 -4 2 -1 -1 0 0 -2 1 0 0 -1 -2 -1 -1 -4 0 0 0 -3 0 0 0 -1 1 0 0 0 0 -2 2 2 0 -1 1 0 0 -1 0 -1 -2 -1 -1 -2 -3 2 0 -2 -5 2 -8 -1 0 -1 -1 0 -1 0 -1 -1 1 -1 0 0 -1 -1 -2 -1 -1 1 -1 0 0 1 0 2 -1 1 -1 0 -1 -1 0 -1 0 -3 2 -4 1 -2 10 0 5 -1 1 0 0 -3 -3 -12 0 -1 -1 -2 0 -4 1 0 0 -1 -1 0 -1 -3 -1 0 -1 -7 1 -1 0 -1 0 -2 -1 0 -1 -2 0 -1 2 0 0 -2 -2 0 -1 -1 1 0 1 -1 -1 0 -1 -2 1 0 0 0 0 -2 -3 -1 0 -3 -1 0 -1 -2 1 -1 -2 -4 0 0 0 -1 1 -1 -2 -2 0 -1 0 -2 2 -2 1 -1 2 0 -1 2 3 1 0 -1 4 0 3 1 1 -1 0 1 2 0 1 -2 -1 -1 -1 0 -2 1 1 -2 0 1 1 0 0 -2 2 0 16 -6 2 0 1 0 3 3 1 2 7 23 -3 1 -2 0 1 1 1 1 -1 4 2 2 -1 3 1 2 2 0 1 4 0 1 0 4 4 1 -1 0 0 2 1 1 -2 3 1 2 1 0 0 0 1 1 1 4 0 0 1 1 0 5 1 0 0 1 2 0 0 1 -1 1 -1 1 1 0 0 3 1 0 1 1 1 0 0 2 -1 0 2 1 2 9 -2 0 1 2 2 0 2 10 4 7 1 1 6 4 0 3zm-76 -73l-1 5 -1 3 -2 0 0 0 -2 1 0 1 2 2 -2 1 1 0 0 4 1 -1 -13 44 -2 0 0 2 3 0 0 0 1 2 1 2 7 3 2 1 1 2 0 0 -1 3 -2 2 -6 2 -16 -1 0 -2 -6 1 -2 1 -3 0 -3 -1 -1 -1 0 -2 -1 -2 1 -1 0 -1 7 -4 3 -4 2 -2 1 -2 0 -2 2 0 3 -3 0 -2 1 -2 -1 0 0 -2 -1 0 0 -2 1 0 1 -2 1 0 2 -6 0 -7 2 -4 0 -2 1 -2 0 -3 3 0 1 -1 1 0 1 -10 1 -2 -1 -1 1 -2 1 0 0 -3 -1 -1 3 -11 2 -4 0 0 1 -1 1 1 1 0 1 4 3 12zm45 -18l-3 0 -1 1 3 0 1 -1zm-26 -18l0 -2 -2 1 2 1 0 0zm1 3l-1 -2 0 3 1 0 0 -1zm25 33l-3 0 0 1 0 1 1 1 1 -1 1 -2zm4 8l0 -1 -1 1 1 0zm14 44l0 -2 -2 0 0 1 -1 0 0 1 1 1 2 -1zm-6 -3l-2 0 1 1 1 -1zm-33 -30l-1 -1 -1 0 1 1 1 0zm38 40l-1 0 1 -3 -1 0 1 -2 -2 0 -4 -1 0 1 3 1 1 1 -2 0 0 3 0 1 1 3 -1 1 1 1 2 0 0 -2 1 -4zm-38 -33l-1 -1 0 -1 0 -1 -3 0 -1 2 -1 0 0 3 -1 0 -1 1 1 1 1 0 0 0 1 0 3 0 -1 -1 1 0 1 -3 1 0z"/>
  <path id="10" class="fil1" d="M642 390l0 3 -1 1 -3 1 -5 -1 -3 -4 1 -1 -1 -3 -1 1 0 -2 1 -1 0 1 1 0 0 -2 -2 -2 -1 2 -1 -1 -4 -7 -6 -6 2 0 -2 -2 -15 -8 -2 -4 0 -2 1 -3 0 -1 1 0 2 -1 3 1 3 0 1 2 1 -1 1 0 0 1 1 2 2 -1 0 1 3 1 -1 -2 4 1 0 1 0 1 1 -1 0 1 1 1 0 0 1 0 1 -3 2 -1 4 -4 2 1 6 1 1 2 0 2 1 1 -1 6 0 13 -1 1 0 1 0 2 -1 5 1 0 0 0 1 0 1 1 0 6zm-57 -3l-1 3 -1 0 1 -3 1 0zm67 29l-1 2 0 1 -4 3 -2 1 -2 10 0 6 -1 -1 0 -1 0 0 0 1 -1 1 1 2 1 -1 -1 2 -2 1 1 2 -1 1 0 -1 0 2 -1 -2 -1 2 3 1 1 3 1 -1 -1 -1 1 -1 0 2 1 0 1 2 0 4 0 3 -2 2 -3 1 -8 1 -7 1 -1 -1 -1 2 -6 3 -3 0 -2 1 -2 1 -7 2 -1 0 -1 -2 -1 -2 0 -3 0 -4 4 -4 1 -2 1 -4 1 -3 0 -9 1 -4 -1 -2 2 -2 -1 -1 0 0 0 -1 1 -2 -1 -2 -1 1 -1 -2 1 0 0 -2 3 2 -1 -3 1 -3 -2 -2 0 1 -2 -1 0 2 1 0 -1 1 1 0 -3 2 -1 0 -3 -1 -3 -2 -1 -1 0 -2 0 -3 2 -1 3 -1 9 -1 29 0 11 3 1 1 1 3zm-58 54l-1 2 -1 -1 -2 0 0 -1 -2 0 0 1 -2 1 -8 -1 -3 -1 2 -2 0 -1 1 -1 1 2 2 1 -3 -3 -1 0 -2 1 1 1 -2 -1 0 2 -2 0 -9 -5 -1 -1 0 -1 -1 -1 0 1 -1 -1 -1 0 0 -1 -2 -1 -6 -6 -2 -4 -2 -2 -2 -4 -1 -2 1 -1 -1 -3 1 0 0 -2 -3 1 0 -2 4 -1 -1 -2 -2 -2 0 -2 -1 -4 0 0 -3 -1 -1 -2 0 -11 1 -10 0 -2 1 -2 1 -4 2 -7 1 0 1 -2 1 -3 1 0 0 -1 -1 -1 1 0 0 -1 2 0 0 0 0 -1 1 0 0 1 3 -1 1 1 -1 0 1 1 0 1 2 -1 -1 -3 -1 0 0 0 1 -1 -1 -2 2 0 0 0 -2 -3 1 -2 1 0 1 -1 -1 0 0 -1 1 0 1 -1 3 -1 -1 -1 1 -2 -1 -1 3 -2 2 0 0 1 1 1 1 -1 0 -1 1 0 0 -3 7 -2 0 0 0 1 2 -1 3 -2 9 -1 1 0 2 1 -1 0 -1 1 1 1 0 0 1 0 0 -2 1 1 1 0 0 5 0 4 -6 6 -2 6 0 3 -1 0 -1 3 1 0 -2 2 0 3 -1 2 1 1 0 1 -2 0 0 1 1 0 0 2 -1 2 0 2 2 0 1 1 1 0 -1 1 1 1 0 0 0 1 -1 1 -1 1 0 1 1 1 1 1 0 5 0 21 1 0 0 2 -2 5 2 0 -1 2 0 1 0 1 0 2 0 1 0 1 0 1 1 0 1 9 1 1 1 3 5 5 0 2 0 3 0 3zm28 -101l0 -1 -1 1 0 0 1 0zm11 23l0 -1 -1 -1 0 1 1 1zm8 45l0 -2 -1 -1 0 1 -1 0 0 1 2 1zm1 3l-2 0 -1 -1 -1 -1 0 0 0 3 0 0 1 0 0 1 2 -1 1 -1zm-5 1l-1 0 0 2 1 -2zm-20 -4l-2 -1 0 1 -1 0 0 1 0 0 1 1 1 0 0 -1 1 -1zm1 5l-1 -1 -1 -1 -1 3 0 0 1 -1 1 0 1 0zm-5 2l-1 1 0 1 1 0 0 -2zm2 5l-2 -1 -2 1 3 3 1 0 0 -3zm-39 -17l0 -2 -2 2 -2 1 0 0 0 1 1 1 2 0 0 -2 1 -1zm-1 8l0 -3 -2 -1 -1 1 0 2 0 0 -1 1 -1 1 1 3 1 1 1 -2 -1 -2 3 -1zm-11 19l0 -1 -1 -1 0 1 0 1 1 0zm-14 -14l-2 0 0 1 1 0 1 -1z"/>
  <path id="11" class="fil1" d="M758 384l0 2 -2 1 -3 1 -4 -1 0 -1 -6 -8 -8 -8 2 -1 -1 -1 -1 1 -1 0 -2 -2 2 1 -2 -1 -1 0 -11 -4 0 -1 -1 -2 -1 -3 1 -2 0 -3 1 0 1 -1 2 0 0 0 2 1 0 -1 1 1 2 -1 2 1 0 0 2 -1 1 2 0 0 1 0 1 -1 9 -1 10 0 1 0 1 1 1 3 0 3 -2 1 0 1 1 0 -1 1 -1 3 0 2 1 1 2 1 0 3 -1 -2 -1 1 -1 -2 0 2 1 1 0 1 2 0 1 12zm-16 45l-1 3 -2 2 -3 1 -2 -1 -1 -1 -6 -10 -7 -7 -1 -2 -1 -3 1 -5 2 -1 4 -4 0 1 2 1 0 -2 3 -1 0 -4 -1 -1 4 -7 0 0 3 -1 4 1 1 1 0 5 0 10 -1 7 1 3 -1 1 0 2 1 0 0 2 1 10zm20 5l-1 22 -1 13 0 1 -1 1 0 -1 0 0 0 -1 -2 0 -1 -1 -1 0 -1 2 -2 -2 -2 2 -7 0 -2 -1 -1 -1 -5 1 1 1 -2 0 0 1 -4 0 -5 1 -3 0 -2 -1 -1 -1 0 -5 0 -5 1 -1 9 -3 2 -1 1 1 1 0 2 0 1 -2 2 0 0 -1 2 -1 3 0 0 -1 1 0 0 -2 -2 0 0 -1 1 -1 1 0 0 -1 2 0 -1 -1 -1 0 1 -2 1 3 1 -2 -1 -1 2 -4 4 -6 2 -1 2 0 4 1 2 1 0 0zm-4 37l-1 1 -1 0 2 -1zm-45 -112l0 24 -3 -1 0 2 -3 -2 0 1 0 0 1 2 5 0 0 1 -1 0 1 2 -2 0 0 2 2 3 0 1 0 7 -2 -1 -1 1 2 0 1 2 0 1 -2 -1 -1 1 0 2 -1 1 1 1 -1 1 1 1 -2 1 -1 0 -1 5 2 1 3 -3 -1 0 1 -3 2 -1 0 14 0 33 -2 0 -1 0 0 1 0 2 1 1 2 0 0 7 -1 2 -1 1 -4 1 -5 0 0 -2 -1 -2 1 -2 0 -3 -1 0 0 1 -1 0 -1 1 1 2 -1 4 -20 0 0 -1 0 -2 -1 0 -2 1 -2 1 -1 1 -7 0 -4 -2 -2 -1 -1 -3 1 -1 0 -1 7 -4 2 2 1 -1 0 0 1 -1 1 -1 1 0 1 -1 0 -2 1 0 0 -2 -2 -1 0 -2 -2 -1 0 -6 -2 -2 2 0 -1 -2 0 -5 3 0 0 0 1 -1 1 -1 -1 -2 -2 0 1 -1 -4 -1 0 -7 1 -4 -1 -15 0 -1 2 -3 -1 -3 1 0 0 0 0 -4 1 -2 -3 -2 1 -4 0 2 2 -3 -3 0 0 -4 -1 -14 0 -1 -6 -2 -1 -1 -1 -2 -1 -2 1 -2 2 -2 3 -1 4 0 19 0 0 2 1 0 1 -1 0 -1 4 1 1 1 1 0 3 0 0 0 1 -2 3 0 1 2 2 -1 1 0 0 -1 2 0 2 1 1 1 1 6zm-40 93l-1 1 0 0 0 -1 -1 -1 0 -1 1 0 0 1 1 1zm36 -83l0 0 -2 -1 -1 1 -1 -1 -1 2 1 2 1 1 3 -1 0 0 -1 -1 -1 -1 2 0 0 -1zm-2 35l-1 -2 0 3 1 -1zm-37 -18l-1 0 0 1 1 0 0 -1zm2 34l-1 -1 0 2 1 0 0 -1zm26 46l0 -1 -2 -1 0 1 0 1 1 0 1 0zm0 3l0 -1 -2 0 2 1z"/>
  <path id="12" class="fil1" d="M886 386l-2 6 1 1 0 1 0 3 1 0 -1 4 0 1 0 1 -1 1 0 1 -1 2 1 0 -1 2 -3 1 -1 -3 -2 0 -2 2 -1 1 -4 2 1 1 1 -1 2 1 1 -1 1 2 -3 1 0 1 -1 0 0 1 0 1 -1 -1 -1 1 -1 1 0 0 0 0 2 1 0 0 0 1 0 1 -4 1 -1 -1 -2 1 -2 1 -2 0 0 1 -2 0 -11 1 -6 0 -6 -2 -1 -1 -1 -3 1 -4 7 -5 1 -1 1 -5 0 -3 2 1 0 -5 2 -1 -2 -1 -1 0 1 -3 0 2 3 0 -1 -2 1 -1 -1 -1 0 -2 1 0 -1 -2 1 0 0 0 1 -1 -1 -7 0 0 -1 -1 -1 0 0 -2 1 0 0 -1 1 0 1 1 2 -1 0 -2 0 -3 0 -1 -2 -1 0 -1 -1 -1 -2 3 -2 -2 -2 1 -2 -4 -6 -2 0 -2 -1 -3 1 -4 1 -2 10 -1 8 0 12 2 4 1 2 1 0 1 1 1 -1 3 2 0 -1 1 -1 1 2 1 3 0 -1 -1 2 0 0 -1 -2 -2 -1 -2 2 1 6 5 3 10 1 3 0 2 -2 0 -1 2 2 1 -1 2 2 1 0 1 0 1 0 1zm-99 -12l-2 0 0 -1 2 1zm50 92l-1 3 -2 2 -7 1 -19 -1 -1 -2 -2 0 -1 2 1 -1 1 1 -3 0 0 -1 0 0 -1 -1 0 1 -2 0 1 1 -14 1 -6 -1 -5 -1 -1 -1 -1 -3 0 -2 1 -1 8 -3 0 0 -1 0 0 -1 5 -1 0 -1 -2 0 1 -1 -2 -1 1 -1 -1 -1 0 -1 -1 0 1 -13 -1 0 1 -8 -1 -6 1 -1 1 -3 1 1 1 -3 -1 -1 -2 -2 2 0 0 -2 -2 0 0 -1 1 0 1 1 -1 -1 1 -2 -1 -1 0 -3 0 1 -1 0 0 -3 2 -1 0 -2 0 -1 -2 -5 0 0 0 -1 0 0 1 -1 -1 -1 0 -2 3 -1 1 -2 -1 -2 -1 -1 -1 -1 0 2 -1 0 0 -3 1 0 0 1 2 0 2 -1 -1 -1 0 -2 -1 -1 -1 -1 -2 2 0 -3 1 -1 4 0 -1 -5 0 -1 0 -1 0 -1 -1 -1 0 -1 -3 0 -1 -2 -1 -1 -7 -4 -1 -3 1 -2 2 -2 7 -2 2 0 0 2 3 1 2 -2 -2 0 3 0 1 2 2 0 3 -2 1 2 1 -1 2 0 1 1 1 -1 2 0 1 1 1 0 2 0 1 0 0 0 1 -1 3 1 1 0 1 -2 1 1 1 0 1 -1 2 0 1 2 2 4 0 2 -1 2 1 -1 0 -1 1 0 1 0 0 21 -1 1 1 1 0 2 -1 0 -1 3 2 1 0 49 -2 3 -1 4 0 0 1 1 0 0 1 0 0 -2 1 0 0 1 0 1 -1 2 0 2 -1 2 0 0 -2 0 0 1 2 1 -1 3 0 2 -2 0 0 -1 -1 -1 2 -1 0 -1 1 0 0 -1 -3 0 1 2 -1 1 -1 -1 -1 1 0 3 2 0 -2 1 1 1 0 1 3 -3 0 1 2 -1 -1 2 3 0 1 -2 2 1 5 3 1 0 0 1 1 2zm-52 -64l-1 1 0 -1 1 0zm88 -38l-1 -1 -1 1 2 0zm5 7l-2 -2 0 1 1 0 1 1zm-1 7l-1 -3 -1 0 0 1 -1 2 1 0 2 0zm-26 23l-1 -1 -1 1 0 0 1 0 1 0zm0 3l0 -1 -1 0 -1 0 2 1zm-7 3l-1 1 0 1 1 0 0 -2zm-32 -25l-1 -1 0 -1 -1 0 0 -1 -3 1 -1 2 3 1 2 0 1 -1zm-5 4l-1 0 -2 3 1 0 2 0 0 -3zm-5 3l-2 -2 -2 2 1 0 -1 2 3 0 1 -2zm-1 4l0 0 -1 -1 -1 1 2 0zm-3 3l-1 0 -1 1 -1 0 -1 0 3 1 1 -2zm6 72l-1 -2 -2 0 1 1 -4 0 -2 0 0 1 0 0 0 1 0 1 2 0 0 1 1 0 0 -1 -1 -1 4 -1 2 0z"/>
  <path id="13" class="fil1" d="M968 377l-2 0 1 -1 1 0 0 1zm56 89l-1 3 -1 1 -7 2 -2 0 0 -1 -1 -1 -1 0 -2 0 -2 0 -1 -2 -3 0 -2 0 0 0 -1 -1 -2 -1 0 2 -1 0 1 3 -9 0 0 -1 -1 0 0 0 -2 0 -3 1 0 1 -8 0 -3 0 -5 -2 -2 -1 -1 -4 0 -1 6 -5 1 -1 1 -2 0 -5 2 0 0 -2 -1 -2 -2 -4 0 -1 -1 -2 -2 -5 -1 -1 1 0 0 -2 -2 0 0 -1 1 -1 -1 -3 1 0 0 0 -1 -1 -1 -6 -2 0 -1 1 1 1 1 0 0 2 0 0 2 1 -2 0 -1 -1 0 -2 -1 0 -1 -2 -6 -6 0 -2 0 -2 1 -3 0 -1 6 -4 3 -7 1 1 1 -1 0 -2 -1 0 -1 -2 0 -1 2 -5 0 -1 0 0 1 -1 0 -2 1 0 0 2 0 3 -1 0 0 1 0 1 0 1 -1 1 0 1 0 1 1 0 0 -1 1 -2 2 -2 0 -3 -1 -7 2 0 0 -1 1 -1 2 -1 1 1 -2 -3 -3 1 -3 -1 -1 0 0 1 0 2 -2 1 0 -2 0 -2 -1 -4 -1 -2 -3 -3 -5 -2 0 -2 -1 -3 1 -3 1 -2 9 -1 11 1 1 1 2 1 1 1 3 -1 0 0 3 0 2 1 2 0 0 -1 1 2 3 0 1 2 0 0 -1 -1 2 0 0 4 4 2 0 0 1 1 1 3 1 1 -1 1 2 1 0 1 1 0 0 1 0 1 0 0 0 2 1 0 1 1 1 0 0 1 -2 0 0 -1 -5 -1 -1 1 1 2 -1 1 1 2 -2 0 1 2 0 1 0 1 2 0 0 0 0 0 0 -2 0 0 0 1 3 0 0 -2 -1 0 0 -1 -1 0 0 -1 3 0 -1 -1 -1 -1 2 0 0 3 0 2 0 1 2 -1 0 4 -2 7 -2 4 -1 2 -1 -1 -1 0 0 2 -1 -1 -2 1 0 -1 1 0 -1 -1 -3 2 -1 1 0 1 0 1 -2 -2 -2 2 1 1 -1 1 2 3 -2 1 -1 1 2 1 5 4 3 4 2 5 -1 0 1 2 1 2 0 2 1 1 -1 0 1 2 0 1 1 2 0 1 1 1 -1 1 1 0 0 2 1 0 0 2 0 1 0 0 -2 1 2 1 0 0 0 0 1 1 -1 1 1 1 2 -1 1 -2 0 2 2 3 3 6 1 2 1 1 7 3 0 1 0 2zm-66 0l0 2 -2 2 -3 1 -4 1 -23 -1 -7 0 0 -1 0 -2 1 0 -4 0 -1 -1 -5 1 -4 2 0 -1 -2 3 -2 -1 -5 -1 -1 -1 -1 -3 1 -2 0 -1 6 -3 2 -1 2 -9 0 -1 1 -2 -1 -2 1 0 2 0 1 -2 -1 -1 1 -1 1 -2 -1 -1 0 -1 -2 -1 0 3 -2 0 2 -1 -3 -1 0 -14 1 -1 -1 0 0 -1 2 0 0 -3 -1 -1 1 -1 -1 -1 3 1 -2 -2 1 -1 -1 0 1 -2 -1 -1 0 -2 1 -1 -1 -2 0 -2 -1 -1 1 0 0 -1 1 -1 -1 -2 0 -1 -2 -2 0 -10 1 0 0 -2 0 0 0 -2 -1 1 0 -5 1 -1 0 0 2 1 0 -2 1 -1 -1 -1 0 -1 -1 -1 1 -1 -1 0 0 -2 1 0 -1 -1 2 -1 1 0 -4 -4 -1 0 -2 0 -2 -1 -5 -2 -1 -3 1 -3 1 -1 4 -1 2 0 1 2 1 -1 0 -1 1 -1 9 1 0 0 1 0 1 0 1 1 0 -1 2 0 1 1 -2 1 1 2 1 -1 0 0 1 -1 1 1 2 -2 2 -1 0 1 3 1 0 -1 2 0 2 0 1 1 1 1 0 -2 2 1 2 1 0 -1 0 -2 2 0 4 0 2 2 0 1 1 35 -2 2 1 0 0 1 0 1 0 2 -3 1 1 2 1 0 1 -2 0 43 0 0 0 2 0 10 -1 1 -1 3 -2 -1 0 2 2 0 -1 4 -1 -1 1 -2 -1 -1 -1 3 -2 0 1 0 0 2 1 1 1 0 0 -1 1 0 2 1 0 -3 3 1 0 1 2 1 1 -1 2 1 2 1 1 3zm46 -80l0 -1 -1 -1 0 1 1 1zm-13 21l-1 -1 -2 -2 0 2 1 2 2 -1zm-53 -44l0 -1 -1 0 0 1 1 0zm-1 1l-1 0 0 1 1 0 0 -1zm-4 -2l0 -1 -3 2 0 0 0 1 1 0 0 0 2 0 0 -1 0 -1zm3 4l0 -1 -1 1 -1 2 1 1 1 0 0 -1 -1 0 1 -2zm-1 4l-2 -1 1 1 -2 0 -1 2 2 1 -2 1 0 1 1 1 1 -2 1 -2 -1 0 0 -1 1 1 1 0 0 -2zm-26 -19l-1 0 0 2 1 0 0 -2zm100 100l-1 0 1 2 0 -2zm-3 -2l-1 0 0 -2 -1 0 0 -2 -1 1 -1 3 2 0 -1 1 2 0 1 -1zm-98 -97l-1 0 -2 0 2 1 1 -1zm3 9l-2 -1 1 -1 0 0 0 -1 -1 -1 -2 4 0 -1 -1 0 -1 -2 -1 1 0 0 2 2 3 1 0 1 1 1 0 -3 1 0zm54 57l-2 -2 0 -2 -1 0 -1 1 0 2 -1 0 0 1 5 0zm-20 -19l0 -1 -1 -1 -3 3 -1 2 2 0 0 0 0 -1 0 -1 2 0 1 -1zm61 67l-1 -1 -1 0 0 1 2 0zm-10 1l-3 0 0 1 3 -1zm-3 2l-1 -1 0 0 -1 0 0 1 -1 0 -1 1 2 0 1 0 0 -1 1 0zm-53 -1l-2 -2 -1 0 0 1 0 1 3 0zm-8 -1l-2 -1 -2 2 1 0 1 1 2 -1 0 -1zm-8 1l-1 -1 -2 1 2 0 1 0z"/>
  <path id="14" class="fil1" d="M1093 466l-1 2 -2 2 -7 2 -15 -1 -19 1 -2 -1 0 0 -1 -1 1 -1 1 1 1 0 1 0 0 -1 2 0 0 -1 -1 0 -1 -1 0 1 -5 0 -1 1 0 -1 0 0 -4 1 -2 -1 0 1 -5 1 -1 0 -1 -2 -1 -3 0 -2 7 -3 1 -1 1 -1 0 -7 0 -11 2 0 0 0 1 -1 -2 -4 1 -1 -1 -1 -1 -1 0 -1 1 -3 0 -2 -1 0 0 -2 2 -8 -1 -3 1 -8 0 -2 4 -1 1 0 0 -2 -1 -2 2 0 1 -2 -2 0 0 1 -2 0 1 0 0 -1 -2 1 -2 2 -1 0 0 -3 -1 -8 0 -23 -1 -2 -7 -3 -1 -2 0 -2 0 -2 2 -1 4 -2 2 0 1 1 3 1 2 -1 2 0 -2 1 0 2 -1 2 1 1 2 -1 1 2 1 0 1 -3 2 0 1 -2 3 0 1 -1 2 0 1 -1 3 0 3 0 11 -1 1 1 2 1 0 -1 2 0 1 -1 2 0 7 2 1 1 0 2 0 1 0 2 -1 1 -7 3 -1 1 0 0 -1 4 0 18 -1 6 1 3 -1 0 0 0 1 1 0 2 0 0 0 3 0 -1 0 -2 -1 0 0 1 1 1 0 1 -1 1 1 5 -2 0 1 2 -1 0 0 2 0 2 -2 1 1 1 2 1 0 2 -2 -1 0 1 -1 0 2 2 0 2 0 0 2 2 -2 -1 0 0 -2 -2 0 0 -1 0 1 2 -1 1 0 1 -1 1 2 1 -1 2 -1 0 2 3 2 -1 1 -2 -2 -1 1 -1 1 1 0 -1 1 0 0 1 -1 4 -1 -1 0 1 0 2 -1 0 0 1 1 0 -1 2 -2 1 1 2 2 2 0 1 0 3 1 -1 0 1 1 -1 0 1 0 1 0 0 -2 -1 0 2 1 1 0 -1 1 1 0 6 1 2 1 2 1 1 7 3 0 1 1 2zm-11 -82l0 -2 0 0 0 2 0 0zm-39 -30l-1 -1 -1 1 2 1 0 -1zm34 35l-1 0 0 -1 -1 0 -1 -2 -2 1 1 5 2 -1 1 0 0 -1 1 -1zm2 11l-1 -2 -1 1 -1 0 0 1 2 0 1 0zm-5 -1l-1 -1 0 1 1 1 0 -1zm-28 -9l-2 0 -1 1 -1 1 0 1 0 2 1 0 0 -1 0 0 1 -1 1 1 0 -2 1 -2zm9 78l-1 -1 -1 1 1 1 1 -1z"/>
  <path id="15" class="fil1" d="M1198 351l-1 0 -1 2 -3 0 -2 0 -1 -1 0 -2 8 1zm23 5l-1 2 -1 1 -9 4 -2 -1 1 -1 -1 -1 1 0 1 1 1 0 -1 -1 0 0 0 -2 0 -1 0 -1 -2 1 0 2 -2 1 0 1 -1 1 2 2 -1 2 -1 9 1 9 -1 1 0 7 -1 4 1 1 0 20 0 1 -1 0 0 0 -8 -12 -3 -7 0 -28 -1 -4 -1 -3 -2 -1 -9 -4 -1 -1 0 -3 0 -1 1 -2 6 -1 4 -1 -1 1 1 3 4 0 5 -1 1 1 0 -3 12 0 6 1 2 2 1 2zm-40 40l-1 0 0 -1 1 0 0 1zm24 69l0 4 -1 1 -2 1 -1 -1 1 0 0 -2 0 0 1 -2 -3 -1 -1 3 -1 2 0 1 0 0 -1 1 -10 0 -8 -1 -1 -1 -6 -8 -3 -6 -1 -7 -1 -1 -2 -2 0 2 0 0 -1 1 -1 -1 1 0 0 -1 -1 -1 0 0 0 0 1 -1 1 0 2 0 -1 -1 -1 -1 -1 1 0 -1 3 -1 -1 -2 0 -4 -2 1 0 1 1 0 0 1 -2 0 -3 0 -1 -1 -1 -2 -1 -2 1 -1 -1 -1 -3 -7 -1 -2 -1 0 -3 0 -1 -3 -2 -3 0 0 -2 -1 -2 -2 2 -1 0 1 1 0 0 -2 -3 0 -1 -1 1 0 -2 -1 -29 -44 2 0 2 -1 1 0 0 -3 -3 0 -5 1 -1 0 -4 -2 -3 -1 -1 -2 0 -2 0 -2 2 -2 10 -1 7 0 1 2 0 -1 3 1 2 -1 1 0 2 0 0 -1 5 1 0 -1 1 0 1 1 1 0 0 -1 5 0 0 2 1 -1 2 1 1 -1 -2 -1 -2 0 0 0 7 -1 6 2 6 8 1 1 -2 1 2 3 0 2 3 0 -1 0 0 -2 -1 0 0 -1 2 2 0 2 1 0 4 5 -3 1 0 1 2 0 1 2 2 1 0 1 2 0 -2 1 2 2 0 2 1 0 0 2 2 2 1 3 2 1 1 1 -2 1 0 1 0 0 1 1 1 1 -1 0 -1 1 1 0 0 1 2 0 1 0 1 0 1 1 2 0 17 27 3 7 0 1 -1 13 -1 0 0 6 1 1 -1 2 1 0 1 -1 0 9zm-65 1l-1 2 -2 2 -7 2 -14 -1 1 0 0 0 1 0 1 -1 0 1 1 0 1 -1 -2 0 2 -2 -1 -1 0 0 -1 1 -2 0 -1 1 -1 1 0 0 -2 1 -1 1 -2 0 -4 0 -6 -2 -1 -1 -1 -3 0 -2 1 -1 1 -1 6 -2 4 -1 5 -1 0 -3 -1 0 -1 -1 0 -1 0 -7 1 0 0 -2 0 -3 1 0 0 -5 2 0 -1 -2 0 -3 -1 -2 -2 -2 0 -1 2 0 1 -1 -1 -1 -1 0 0 -1 0 -2 1 -1 1 0 0 -2 1 0 -3 -3 -1 -1 0 -30 1 -1 0 0 1 0 1 1 6 11 3 8 0 2 -1 0 0 1 0 2 -1 0 -1 2 2 -1 0 -1 1 1 0 43 1 4 1 2 9 4 3 1 1 2 0 1zm9 -113l-1 -2 -3 0 0 1 3 3 1 -2zm9 10l-1 -1 0 -1 -2 -2 -4 0 -1 4 4 1 -1 3 1 1 3 -3 1 -2zm-4 6l-1 -1 -2 0 1 2 2 -1zm22 26l0 -1 -2 -2 0 2 0 0 0 2 2 -1zm1 3l-1 -1 -1 1 -3 0 1 1 1 0 3 -1zm5 6l-1 -1 -1 -2 -2 0 -1 1 0 0 0 1 0 2 1 1 0 1 1 1 1 0 0 -2 -1 -1 1 0 0 -1 2 1 0 -1zm3 10l-1 -3 0 -1 0 0 0 -2 -2 0 0 -1 -1 -1 -1 1 1 1 1 3 -1 2 0 0 4 1zm1 2l0 -1 -2 0 1 1 1 0zm2 3l0 -1 -2 -2 -1 0 0 2 1 1 1 1 1 -1zm-1 1l-1 -1 0 1 -1 1 2 0 0 -1zm1 4l-1 -2 -2 1 1 1 2 0zm16 34l-1 0 0 1 1 -1zm-1 5l-1 -1 0 2 1 0 0 -1zm-56 -49l-2 -5 1 3 1 2zm-23 -2l0 -2 -2 1 1 0 1 1zm1 55l-2 -1 0 1 2 1 0 -1zm-6 -5l-1 -1 -2 0 0 2 1 -1 2 0zm4 8l-1 -2 0 1 1 1z"/>
  <path id="16" class="fil1" d="M1339 390l0 2 -1 1 -2 1 -4 0 -3 0 0 -1 -1 -1 -4 -10 -4 -9 0 -1 -1 -3 1 0 1 -1 -3 -2 -5 -1 -2 -7 -1 -2 1 -3 2 -2 1 0 10 1 11 -1 2 1 0 1 1 9 0 15 -1 1 0 1 -2 3 -1 2 1 0 0 1 2 0 -1 2 2 -1 0 1 -1 4 1 0 0 -1 1 0zm-22 77l0 1 -2 2 -9 2 -19 -1 -9 0 -2 0 0 -1 -4 -1 -4 1 -9 2 -7 -2 -1 0 -1 -2 0 -1 0 -3 10 -5 1 -1 0 -7 1 -6 1 0 0 -3 1 -3 -1 -1 -1 0 0 -2 1 0 0 -2 -1 1 0 -9 1 0 -1 -1 1 0 1 1 1 0 0 -2 -1 -7 -1 -1 1 -1 -1 -4 1 0 -1 -3 1 -1 0 -2 -2 -1 1 -3 0 -2 -2 -2 1 0 0 -1 1 -1 0 0 -2 -1 1 -39 5 -2 0 -2 11 1 20 -1 5 1 1 1 1 4 -1 1 -1 2 0 2 0 2 1 2 -1 1 2 1 0 1 -2 0 0 1 0 0 1 1 -1 1 2 3 0 3 -2 0 1 2 0 2 1 1 0 9 -3 -1 0 1 1 1 0 0 0 3 0 2 1 2 -2 3 1 1 0 2 1 2 -1 0 -1 1 1 1 0 1 2 1 0 1 -1 0 -1 1 1 1 -1 0 0 1 1 0 0 1 1 -1 0 1 -2 0 1 1 0 2 -1 -2 1 2 1 0 0 1 -2 0 1 2 0 -1 1 2 0 0 0 9 0 5 -1 0 -1 0 0 4 0 1 1 2 0 0 0 2 1 1 -1 0 0 1 -1 1 1 1 0 1 -1 0 1 3 -3 0 0 1 0 1 -1 0 -1 0 1 3 3 1 1 1 -3 0 1 1 1 0 2 0 -1 -2 1 0 1 -2 2 1 8 3 1 1 0 3zm-62 -107l-1 1 -1 2 -1 -1 -2 1 -2 2 0 1 -3 5 -1 1 0 2 -2 4 1 2 -4 12 -1 0 -2 1 0 -1 -1 0 1 -1 -2 0 -1 1 -1 1 -1 1 -3 -2 -1 -1 0 -3 2 -18 -1 -8 1 -2 -1 -1 1 -1 -1 0 0 -1 1 0 1 -1 0 0 0 -1 1 1 1 -2 -1 -1 -1 -1 -1 -1 15 1 2 -1 2 2 0 -1 2 -1 0 0 1 2 -1 0 -2 1 2 1 0 0 0 -1 1 2 -2 1 1 1 1 0 0 0 4 -1 0 3zm80 27l0 -2 -2 0 0 2 2 0zm-2 1l-1 1 1 0 0 -1zm-33 -27l-2 -1 0 3 1 1 1 -3zm1 11l-1 -2 0 0 0 -1 0 0 1 -1 -1 0 -1 -2 -1 0 0 0 -2 2 0 2 2 1 -1 2 3 0 1 -1zm-2 7l0 -1 -1 1 1 0zm-30 4l-3 1 0 1 2 0 1 -2zm-4 0l-2 1 0 0 0 2 1 -2 1 -1zm-1 49l-1 1 0 0 1 -1zm6 9l-1 -2 0 2 0 1 1 -1zm0 1l-4 5 1 1 1 -1 0 -2 2 0 0 -3zm-7 7l0 -2 -1 2 1 0zm0 3l0 -2 -1 0 0 1 1 1z"/>
  <path id="17" class="fil1" d="M1410 466l-1 2 -2 2 -7 2 -15 -1 -19 1 -2 -1 1 0 -2 -1 1 -1 1 1 1 0 1 0 0 -1 2 0 0 -1 -1 0 -1 -1 0 1 -5 0 0 1 -1 -1 0 0 -4 1 -2 -1 0 1 -5 1 -1 0 -1 -2 -1 -3 0 -2 7 -3 1 -1 1 -1 0 -7 0 -11 2 0 0 0 1 -1 -2 -4 1 -1 -1 -1 -1 -1 1 -1 0 -3 0 -2 0 0 -1 -2 2 -8 -1 -3 1 -8 0 -2 5 -1 0 0 0 -2 -1 -2 2 0 1 -2 -1 0 -1 1 -2 0 1 0 0 -1 -2 1 -2 2 -1 0 0 -3 -1 -8 0 -23 -1 -2 -7 -3 -1 -2 0 -2 0 -2 2 -1 5 -2 2 0 0 1 3 1 2 -1 2 0 -2 1 0 2 -1 2 1 1 2 -1 2 2 0 0 1 -3 3 0 0 -2 3 0 1 -1 2 0 1 -1 3 0 3 0 12 -1 0 1 2 1 1 -1 1 0 2 -1 2 0 6 2 1 1 0 2 1 1 -1 2 0 1 -8 3 -1 1 0 0 0 4 0 18 -2 6 1 3 -1 0 0 0 1 1 0 2 1 0 0 3 -1 -1 0 -2 -1 0 0 1 1 1 0 1 -1 1 1 5 -1 0 0 2 -1 0 0 2 0 2 -1 1 0 1 2 1 0 2 -1 -1 -1 1 -1 0 2 2 0 2 1 0 1 2 -1 -1 -1 0 -1 -2 -1 0 -1 0 1 2 -1 1 0 1 0 1 1 1 -1 2 -1 0 2 3 2 -1 1 -2 -2 -1 1 -1 1 1 1 -1 1 0 -1 1 -1 4 0 -1 -1 1 0 2 -1 0 0 1 1 0 -1 2 -2 1 1 2 2 2 0 1 1 3 0 -1 0 1 1 -1 1 1 -1 1 0 0 -2 -1 0 2 1 1 0 -1 2 1 0 6 0 2 1 2 1 1 7 3 1 1 0 2zm-10 -82l-1 -2 0 0 0 2 1 0zm-40 -30l-1 -1 -1 1 2 1 0 -1zm34 35l0 0 -1 -1 -1 0 -1 -2 -2 1 1 5 2 -1 1 0 1 -1 0 -1zm2 11l-1 -2 -1 1 0 0 -1 1 2 0 1 0zm-4 -1l-2 -1 0 1 1 1 1 -1zm-29 -9l-2 0 -1 1 -1 1 0 1 0 2 1 0 0 -1 0 0 1 -1 1 1 0 -2 1 -2zm9 78l-1 -1 -1 1 1 1 1 -1z"/>
  <path id="18" class="fil1" d="M1515 351l-1 0 -1 2 -3 0 -2 0 0 -1 0 -2 7 1zm23 5l0 2 -1 1 -10 4 -2 -1 1 -1 -1 -1 2 0 0 1 1 0 -1 -1 0 0 0 -2 0 -1 0 -1 -2 1 0 2 -2 1 0 1 0 1 1 2 0 2 -1 9 0 9 -1 1 0 7 -1 4 2 1 -1 20 0 1 -1 0 0 0 -8 -12 -3 -7 0 -28 -1 -4 -1 -3 -2 -1 -9 -4 -1 -1 0 -3 0 -1 2 -2 5 -1 4 -1 -1 1 1 3 4 0 5 -1 1 1 0 -3 12 0 6 1 2 2 1 2zm-40 40l-1 0 1 -1 0 0 0 1zm25 69l-1 4 -1 1 -2 1 -1 -1 2 0 -1 -2 1 0 0 -2 -3 -1 -1 3 -1 2 0 1 0 0 0 1 -11 0 -8 -1 -1 -1 -5 -8 -4 -6 -1 -7 -1 -1 -2 -2 0 2 0 0 -1 1 0 -1 0 0 0 -1 -1 -1 0 0 0 0 1 -1 1 0 2 0 -1 -1 -1 -1 -1 1 0 -1 3 -1 -1 -2 0 -4 -2 1 0 1 1 0 0 1 -2 0 -3 0 -1 -1 -1 -2 0 -2 0 -1 -1 -1 -3 -7 -1 -2 -1 0 -3 0 -1 -3 -1 -3 -1 0 -2 -1 -2 -2 2 -1 0 1 1 0 0 -2 -3 0 -1 -1 1 0 -2 -1 -29 -44 2 0 2 -1 1 0 0 -3 -3 0 -5 1 -1 0 -4 -2 -2 -1 -2 -2 0 -2 1 -2 1 -2 11 -1 6 0 1 2 0 -1 3 1 2 -1 1 0 2 0 0 -1 5 1 1 -1 0 0 1 1 1 0 1 -1 4 0 0 2 1 -1 2 1 1 -1 -1 -1 -2 0 0 0 7 -1 5 2 6 8 1 1 -2 1 2 3 0 2 3 0 -1 0 0 -2 -1 0 1 -1 1 2 0 2 1 0 4 5 -3 1 1 1 1 0 1 2 3 1 0 1 1 0 -2 1 2 2 1 2 0 0 1 2 1 2 1 3 3 1 0 1 -2 1 0 1 1 0 0 1 1 1 -1 0 -1 1 1 0 1 1 1 0 1 0 1 0 1 1 2 0 17 27 4 7 0 1 -2 13 -1 0 0 6 1 1 0 2 0 0 1 -1 1 9zm-66 1l-1 2 -2 2 -7 2 -14 -1 1 0 0 0 1 0 1 -1 0 1 1 0 1 -1 -1 0 1 -2 -1 -1 0 0 -1 1 -2 0 -1 1 -1 1 0 0 -2 1 -1 1 -2 0 -4 0 -6 -2 -1 -1 -1 -3 1 -2 1 -1 0 -1 6 -2 4 -1 6 -1 -1 -3 -1 0 -1 -1 0 -1 0 -7 1 0 0 -2 0 -3 1 0 0 -5 2 0 -1 -2 0 -3 -1 -2 -2 -2 0 -1 2 0 1 -1 -1 -1 -1 0 0 -1 0 -2 1 -1 1 0 0 -2 1 0 -3 -3 -1 -1 0 -30 1 -1 0 0 1 0 1 1 7 11 2 8 0 2 0 0 -1 1 0 2 -1 0 0 2 1 -1 0 -1 1 1 0 43 1 4 2 2 8 4 3 1 1 2 0 1zm9 -113l-1 -2 -3 0 0 1 3 3 1 -2zm9 10l-1 -1 0 -1 -2 -2 -4 0 0 4 3 1 -1 3 2 1 2 -3 1 -2zm-4 6l-1 -1 -1 0 0 2 2 -1zm22 26l0 -1 -2 -2 1 2 -1 0 0 2 2 -1zm1 3l-1 -1 -1 1 -3 0 1 1 1 0 3 -1zm6 6l-2 -1 -1 -2 -2 0 0 1 -1 0 0 1 1 2 0 1 0 1 1 1 1 0 0 -2 -1 -1 1 0 1 -1 1 1 1 -1zm2 10l-1 -3 0 -1 0 0 0 -2 -2 0 0 -1 -1 -1 0 1 0 1 1 3 -1 2 1 0 3 1zm1 2l0 -1 -1 0 0 1 1 0zm2 3l0 -1 -2 -2 -1 0 0 2 2 1 0 1 1 -1zm-1 1l-1 -1 0 1 -1 1 2 0 0 -1zm2 4l-2 -2 -2 1 1 1 3 0zm16 34l-2 0 0 1 2 -1zm-1 5l-2 -1 1 2 0 0 1 -1zm-57 -49l-1 -5 0 3 1 2zm-23 -2l0 -2 -2 1 1 0 1 1zm1 55l-2 -1 0 1 2 1 0 -1zm-6 -5l-1 -1 -2 0 0 2 1 -1 2 0zm4 8l0 -2 -1 1 1 1z"/>
  <path id="19" class="fil1" d="M1650 390l-1 3 -1 1 -2 1 -6 -1 -3 -4 2 -1 -1 -3 -1 1 -1 -2 1 -1 0 1 1 0 0 -2 -1 -2 -1 2 -2 -1 -4 -7 -5 -6 1 0 -2 -2 -15 -8 -1 -4 0 -2 0 -3 0 -1 1 0 3 -1 3 1 2 0 1 2 1 -1 2 0 -1 1 2 2 2 -1 0 1 2 1 0 -2 3 1 0 1 1 1 1 -1 0 1 0 1 0 0 2 0 0 -3 3 -1 3 -4 3 1 5 1 1 2 1 2 0 1 -1 6 0 13 -1 1 0 1 1 2 -1 5 0 0 1 0 0 0 1 1 1 6zm-58 -3l0 3 -1 0 0 -3 1 0zm67 29l0 2 -1 1 -4 3 -2 1 -1 10 0 6 -1 -1 0 -1 -1 0 0 1 0 1 1 2 1 -1 -1 2 -2 1 0 2 0 1 -1 -1 0 2 -1 -2 0 2 2 1 2 3 0 -1 0 -1 0 -1 1 2 1 0 0 2 1 4 -1 3 -2 2 -2 1 -9 1 -6 1 -2 -1 0 2 -7 3 -3 0 -1 1 -2 1 -7 2 -1 0 -2 -2 -1 -2 0 -3 1 -4 4 -4 1 -2 1 -4 1 -3 0 -9 0 -4 0 -2 2 -2 -1 -1 -1 0 0 -1 2 -2 -2 -2 0 1 -1 -2 0 0 0 -2 3 2 0 -3 1 -3 -3 -2 0 1 -1 -1 -1 2 2 0 -1 1 0 0 -2 2 -1 0 -3 -1 -4 -2 0 -1 -1 -2 1 -3 1 -1 4 -1 8 -1 29 0 11 3 2 1 0 3zm-57 54l-2 2 -1 -1 -1 0 -1 -1 -2 0 0 1 -2 1 -7 -1 -3 -1 2 -2 0 -1 1 -1 0 2 3 1 -3 -3 -1 0 -2 1 1 1 -3 -1 0 2 -2 0 -8 -5 -2 -1 0 -1 -1 -1 0 1 0 -1 -1 0 0 -1 -2 -1 -7 -6 -2 -4 -2 -2 -1 -4 -1 -2 0 -1 0 -3 1 0 0 -2 -3 1 -1 -2 4 -1 0 -2 -2 -2 0 -2 -1 -4 -1 0 -3 -1 0 -2 -1 -11 1 -10 0 -2 2 -2 0 -4 2 -7 2 0 0 -2 2 -3 0 0 1 -1 -1 -1 1 0 0 -1 1 0 0 0 0 -1 2 0 0 1 3 -1 0 1 0 0 1 1 0 1 2 -1 -2 -3 -1 0 0 0 1 -1 0 -2 1 0 0 0 -1 -3 1 -2 1 0 0 -1 0 0 0 -1 1 0 1 -1 3 -1 -1 -1 0 -2 0 -1 2 -2 2 0 0 1 2 1 0 -1 0 -1 2 0 0 -3 7 -2 -1 0 0 1 2 -1 4 -2 8 -1 1 0 2 1 -1 0 0 1 0 1 0 0 2 0 -1 -2 1 1 2 0 0 5 -1 4 -5 6 -2 6 0 3 -2 0 0 3 1 0 -2 2 -1 3 0 2 1 1 -1 1 -1 0 -1 1 1 0 0 2 0 2 0 2 2 0 0 1 1 0 0 1 0 1 1 0 0 1 -1 1 -1 1 -1 1 1 1 2 1 0 5 -1 21 1 0 0 2 -1 5 1 0 -1 2 1 1 0 1 0 2 -1 1 1 1 0 1 1 0 0 9 1 1 2 3 4 5 1 2 -1 3 1 3zm28 -101l-1 -1 -1 1 0 0 2 0zm11 23l0 -1 -1 -1 -1 1 2 1zm8 45l-1 -2 0 -1 -1 1 0 0 0 1 2 1zm0 3l-1 0 -2 -1 0 -1 -1 0 0 3 0 0 1 0 1 1 1 -1 1 -1zm-4 1l-2 0 1 2 1 -2zm-21 -4l-2 -1 0 1 -1 0 0 1 0 0 1 1 1 0 0 -1 1 -1zm1 5l0 -1 -2 -1 -1 3 1 0 1 -1 1 0 0 0zm-5 2l-1 1 0 1 1 0 0 -2zm3 5l-2 -1 -2 1 3 3 0 0 1 -3zm-39 -17l-1 -2 -2 2 -2 1 0 0 0 1 1 1 2 0 0 -2 2 -1zm-2 8l0 -3 -1 -1 -1 1 0 2 -1 0 0 1 -1 1 0 3 1 1 1 -2 0 -2 2 -1zm-11 19l0 -1 -1 -1 0 1 1 1 0 0zm-14 -14l-1 0 -1 1 1 0 1 -1z"/>
 </g>
</svg>
